<?xml version="1.0" encoding="utf-8"?>
<!-- Generator: Adobe Illustrator 17.1.0, SVG Export Plug-In . SVG Version: 6.00 Build 0)  -->
<!DOCTYPE svg PUBLIC "-//W3C//DTD SVG 1.1//EN" "http://www.w3.org/Graphics/SVG/1.1/DTD/svg11.dtd">
<svg version="1.1" id="Layer_1" xmlns="http://www.w3.org/2000/svg" xmlns:xlink="http://www.w3.org/1999/xlink" x="0px" y="0px"
	 viewBox="0 0 50 50" enable-background="new 0 0 50 50" xml:space="preserve">
<g id="Layer_1_1_">
	
		<image overflow="visible" enable-background="new    " width="24" height="24" xlink:href="3BD60EF2.png"  transform="matrix(1 0 0 1 140.6446 -58.5702)">
	</image>
	
		<image overflow="visible" enable-background="new    " width="24" height="24" xlink:href="3BD60EF6.png"  transform="matrix(1 0 0 1 140.6446 -88.157)">
	</image>
	
		<image overflow="visible" enable-background="new    " width="24" height="24" xlink:href="3BD60EF1.png"  transform="matrix(1 0 0 1 140.6446 -115.7603)">
	</image>
	<rect y="-100" fill="#6BC661" width="50" height="50"/>
	<rect y="-50" fill="#FFE255" width="50" height="50"/>
	<rect fill="#FC3E35" width="50" height="50"/>
</g>
<g id="Layer_2">
	<rect x="5" y="23" transform="matrix(-0.7071 -0.7071 0.7071 -0.7071 25.0019 60.3541)" fill="#FFFFFF" width="40" height="4"/>
	<rect x="5" y="23" transform="matrix(-0.7071 0.7071 -0.7071 -0.7071 60.3531 24.9995)" fill="#FFFFFF" width="40" height="4"/>
	<rect x="23" y="-44" fill="#333333" width="4" height="30"/>
	<rect x="23" y="-10" fill="#333333" width="4" height="4"/>
	<g>
		
			<rect x="16.4" y="-78.1" transform="matrix(-0.7071 0.7071 -0.7071 -0.7071 -0.2349 -152.1244)" fill="#FFFFFF" width="30" height="4"/>
		
			<rect x="10.8" y="-72.8" transform="matrix(-0.7071 -0.7071 0.7071 -0.7071 81.3229 -107.9309)" fill="#FFFFFF" width="15" height="4"/>
	</g>
</g>
</svg>
