<?xml version="1.0" encoding="utf-8"?>
<!-- Generator: Adobe Illustrator 18.0.0, SVG Export Plug-In . SVG Version: 6.00 Build 0)  -->
<!DOCTYPE svg PUBLIC "-//W3C//DTD SVG 1.1//EN" "http://www.w3.org/Graphics/SVG/1.1/DTD/svg11.dtd">
<svg version="1.1" id="Layer_1" xmlns="http://www.w3.org/2000/svg" xmlns:xlink="http://www.w3.org/1999/xlink" x="0px" y="0px"
	 viewBox="0 0 512 512" enable-background="new 0 0 512 512" xml:space="preserve">
<path fill="#FFFFFF" d="M291.9,72.7c0,0-85.2,0-113.6,0c-50.9,0-98.8,38.6-98.8,83.2c0,45.7,34.7,82.5,86.5,82.5
	c3.6,0,7.1-0.1,10.5-0.3c-3.4,6.4-5.8,13.7-5.8,21.2c0,12.7,6.8,23,15.5,31.4c-6.5,0-12.8,0.2-19.7,0.2C103.5,290.9,55,331,55,372.7
	c0,41,53.2,66.7,116.3,66.7c71.9,0,111.6-40.8,111.6-81.8c0-32.9-9.7-52.6-39.7-73.8c-10.3-7.3-29.9-24.9-29.9-35.3
	c0-12.2,3.5-18.2,21.8-32.5c18.8-14.7,32.1-35.3,32.1-59.3c0-28.6-12.7-56.4-36.6-65.6h36L291.9,72.7z M252.3,350.5
	c0.9,3.8,1.4,7.7,1.4,11.7c0,33.1-21.4,59-82.6,59c-43.6,0-75.1-27.6-75.1-60.7c0-32.5,39-59.5,82.6-59.1
	c10.2,0.1,19.7,1.7,28.3,4.5C230.5,322.4,247.5,331.7,252.3,350.5z M182.5,226.8c-29.3-0.9-57.1-32.7-62.1-71.1
	c-5.1-38.4,14.6-67.8,43.8-67c29.2,0.9,57.1,31.7,62.1,70.1C231.4,197.3,211.7,227.7,182.5,226.8z M388.6,231v-81.4h-27.1V231h-81.4
	v27.1h81.4v81.4h27.1v-81.4H470V231H388.6z"/>
</svg>
