<?xml version="1.0" encoding="utf-8"?>
<!-- Generator: Adobe Illustrator 18.0.0, SVG Export Plug-In . SVG Version: 6.00 Build 0)  -->
<!DOCTYPE svg PUBLIC "-//W3C//DTD SVG 1.1//EN" "http://www.w3.org/Graphics/SVG/1.1/DTD/svg11.dtd">
<svg version="1.1" id="Layer_1" xmlns="http://www.w3.org/2000/svg" xmlns:xlink="http://www.w3.org/1999/xlink" x="0px" y="0px"
	 viewBox="0 0 512 512" enable-background="new 0 0 512 512" xml:space="preserve">
<path fill="#FFFFFF" d="M280.8,342.1c-23.3-1.8-33-13.3-51.3-24.4c-10,52.6-22.3,103-58.6,129.3c-11.2-79.5,16.4-139.2,29.3-202.6
	c-21.9-36.9,2.6-111,48.8-92.7c56.8,22.5-49.2,137,22,151.3c74.3,14.9,104.6-128.9,58.6-175.7c-66.6-67.6-193.8-1.5-178.2,95.2
	c3.8,23.6,28.2,30.8,9.8,63.5c-42.6-9.4-55.3-43.1-53.7-87.9c2.6-73.3,65.9-124.7,129.3-131.8c80.2-9,155.6,29.5,166,104.9
	C414.6,256.4,366.6,348.7,280.8,342.1z"/>
</svg>
