<?xml version="1.0" encoding="utf-8"?>
<!-- Generator: Adobe Illustrator 18.0.0, SVG Export Plug-In . SVG Version: 6.00 Build 0)  -->
<!DOCTYPE svg PUBLIC "-//W3C//DTD SVG 1.1//EN" "http://www.w3.org/Graphics/SVG/1.1/DTD/svg11.dtd">
<svg version="1.1" id="Layer_1" xmlns="http://www.w3.org/2000/svg" xmlns:xlink="http://www.w3.org/1999/xlink" x="0px" y="0px"
	 viewBox="349 0 902 900" enable-background="new 349 0 902 900" xml:space="preserve">
<path fill="#FFFFFF" d="M1115.5,254.3c-23.2,10.3-48.2,17.3-74.3,20.3c26.7-16.1,47.3-41.4,56.9-71.6c-25,14.9-52.8,25.6-82.2,31.4
	c-23.7-25.2-57.3-41-94.5-41c-71.5,0-129.6,58-129.6,129.4c0,10.2,1.2,20,3.3,29.6c-107.6-5.3-203-56.9-266.7-135.2
	c-11.1,19.1-17.6,41.4-17.6,65.1c0,44.9,22.9,84.5,57.6,107.7c-21.2-0.6-41.3-6.5-58.7-16.2c0,0.6,0,1.1,0,1.7
	c0,62.8,44.6,115,103.9,127c-10.9,3-22.3,4.6-34.1,4.6c-8.3,0-16.4-0.8-24.4-2.3c16.5,51.4,64.3,88.9,120.9,90
	c-44.3,34.7-100.1,55.4-160.8,55.4c-10.5,0-20.8-0.6-30.9-1.8c57.3,36.7,125.3,58.1,198.4,58.1c238.2,0,368.3-197.4,368.3-368.3
	c0-5.6-0.2-11.2-0.3-16.7C1076.2,303,1098.2,280.2,1115.5,254.3z"/>
</svg>
